<?xml version="1.0" encoding="utf-8"?>
<!DOCTYPE svg PUBLIC "-//W3C//DTD SVG 1.1//EN" "http://www.w3.org/Graphics/SVG/1.1/DTD/svg11.dtd" [
	<!ENTITY ns_flows "http://ns.adobe.com/Flows/1.0/">
	<!ENTITY ns_extend "http://ns.adobe.com/Extensibility/1.0/">
	<!ENTITY ns_ai "http://ns.adobe.com/AdobeIllustrator/10.0/">
	<!ENTITY ns_graphs "http://ns.adobe.com/Graphs/1.0/">
	<!ENTITY ns_vars "http://ns.adobe.com/Variables/1.0/">
	<!ENTITY ns_imrep "http://ns.adobe.com/ImageReplacement/1.0/">
	<!ENTITY ns_sfw "http://ns.adobe.com/SaveForWeb/1.0/">
	<!ENTITY ns_custom "http://ns.adobe.com/GenericCustomNamespace/1.0/">
	<!ENTITY ns_adobe_xpath "http://ns.adobe.com/XPath/1.0/">
]>
<!-- Generator: Adobe Illustrator 16.0.0, SVG Export Plug-In . SVG Version: 6.00 Build 0)  -->
<?xml-stylesheet type="text/css" href="style.css"?>
<!-- Generator: Adobe Illustrator 16.0.0, SVG Export Plug-In . SVG Version: 6.00 Build 0)  -->
<svg id="cloud-1" version="1.1" xmlns:x="&ns_extend;" xmlns:i="&ns_ai;" xmlns:graph="&ns_graphs;"
	 xmlns="http://www.w3.org/2000/svg" xmlns:xlink="http://www.w3.org/1999/xlink" xmlns:a="http://ns.adobe.com/AdobeSVGViewerExtensions/3.0/"
	 x="0px" y="0px" width="400px" height="400px" viewBox="0 0 400 400" enable-background="new 0 0 400 400" xml:space="preserve">
	 <g id="Layer_2">
		 <path fill="#FFFFFF" stroke="#000000" stroke-miterlimit="10" d="M54.983,249.598l311.138-0.157c0,0,7.178-0.006,7.178-11.55
			 c3.413-34.209-37.163-24.021-37.163-24.021s17.745-14.967,4.724-33.755c-13.019-18.789-38.27-9.016-38.27-9.016
			 s21.261-19.605,12.261-39.125c-8.92-13.661-15.997-18.488-30.992-19.254c-26.063-1.078-44.771,20.52-44.771,20.52
			 s-16.084-27.218-34.238-30.046c-18.154-2.828-32.432,11.45-32.432,11.45s-12.363-25.373-35.984-21.112
			 c-26.065,0.191-30.012,44.618-30.012,44.618s-23.846-17.802-43.429,2.605c-26.743,22.199-16.354,55.166-16.354,55.166
			 s-22.843,9.005-19.875,29.561C29.732,246.037,54.983,249.598,54.983,249.598z"/>
	 </g>
</svg>
