<?xml version="1.0" encoding="utf-8"?>
<!-- Generator: Adobe Illustrator 16.0.0, SVG Export Plug-In . SVG Version: 6.00 Build 0)  -->
<!DOCTYPE svg PUBLIC "-//W3C//DTD SVG 1.1//EN" "http://www.w3.org/Graphics/SVG/1.1/DTD/svg11.dtd" [
	<!ENTITY ns_flows "http://ns.adobe.com/Flows/1.0/">
	<!ENTITY ns_extend "http://ns.adobe.com/Extensibility/1.0/">
	<!ENTITY ns_ai "http://ns.adobe.com/AdobeIllustrator/10.0/">
	<!ENTITY ns_graphs "http://ns.adobe.com/Graphs/1.0/">
	<!ENTITY ns_vars "http://ns.adobe.com/Variables/1.0/">
	<!ENTITY ns_imrep "http://ns.adobe.com/ImageReplacement/1.0/">
	<!ENTITY ns_sfw "http://ns.adobe.com/SaveForWeb/1.0/">
	<!ENTITY ns_custom "http://ns.adobe.com/GenericCustomNamespace/1.0/">
	<!ENTITY ns_adobe_xpath "http://ns.adobe.com/XPath/1.0/">
]>

<svg version="1.1" xmlns:x="&ns_extend;" xmlns:i="&ns_ai;" xmlns:graph="&ns_graphs;"
	 xmlns="http://www.w3.org/2000/svg" xmlns:xlink="http://www.w3.org/1999/xlink" x="0px" y="0px" width="400px" height="400px"
	 viewBox="0 0 400 400" enable-background="new 0 0 400 400" xml:space="preserve">
	<g id="Layer_3">
		<g>
			<polygon fill="#FFAE0C" points="162.131,156.275 139.443,111.822 157.674,75.645 191.629,97.74 194.383,147.572 				"/>
			<polygon fill="#FFAE0C" points="209.721,154.838 202.662,96.017 235.508,62.515 262.867,100.631 246.93,157.688 				"/>
			<polygon fill="#FFAE0C" points="270.455,149.679 274.627,109.545 302.416,92.75 315.418,122.503 295.664,157.688 				"/>
			<polygon fill="#FFAE0C" points="318.852,154.652 321.658,127.402 343.098,117.546 353.541,138.705 338.557,161.639 				"/>
			<polygon fill="#FFAE0C" points="113.854,165.994 94.135,138.708 102.255,112.771 126.992,124.028 134.16,156.922 				"/>
			<polygon fill="#FFAE0C" points="83.369,179.516 73.443,156.673 78.077,139.567 90.865,151.837 94.135,176.524 				"/>
			<polygon fill="#FFAE0C" points="61.15,171.893 58.587,156.741 63.896,147.182 69.739,156.425 68.042,171.696 				"/>
			<polygon fill="#FFAE0C" points="48.346,168.636 46.46,157.482 50.368,150.446 54.668,157.25 53.419,168.491 				"/>
			<polygon fill="#FFAE0C" points="374.656,154.301 385.346,138.531 379.398,156.63 				"/>
			<polygon fill="#FFAE0C" points="382.316,159.116 391.004,146.3 386.168,161.009 				"/>
			<path fill="#FFAE0C" d="M93.266,153.966c-1.401,0.497,34.483-32.414,73.793-36.552c28.966-3.448,52.66-3.325,66.035-2
				c13.373,1.325,49.137,4.069,81.551,13.035s75.174,33.104,75.174,33.104s-44.031-1.479-51.035,0
				c-27.586,6.896-40.691,8.964-53.793,13.447c-13.496,7.419-20.455,14.162-30.346,21.725
				c-18.619,13.104-126.149,21.941-144.827,16.552c-15.721-4.537-18.255-18.699-26.207-24.138
				c-6.782-4.639-35.413-10.766-38.931-11.035s-30.563,5.136-32.103,4.828s-6.045-0.328-6.897-1.38s-0.959-6.052,0-6.552
				s28.18-15.625,32.414-16.896c4.234-1.27,32.322,1.196,35.862,1.38S94.667,153.469,93.266,153.966z"/>
			<path fill="#FFFFFF" d="M40.412,167.125c0,1.381-1.119,2.5-2.5,2.5s-3.5-1.119-3.5-2.5s1.119-3.5,2.5-3.5
				S40.412,165.744,40.412,167.125z"/>
		</g>
	</g>
	<g id="Layer_4">
		<path fill="#D4FFFD" d="M34.755,220.497c0,0-19.504,4.885-17.582,22.163c1.922,17.277,12.973,17.989,23.438,20.606
			c22.939,5.946,89.423,4.165,92.984,6.226s25.605,30.373,74.93,29.3c37.975-1.354,60.565-22.676,64.276-24.065
			c3.711-1.389,70.764,4.197,82.808,1.624c12.045-2.573,38.503-12.492,33.88-53.689c-4.623-41.198-54.143-30.601-54.143-30.601
			c-13.964-46.464-54.351-39.967-67.003-38.096c-12.651,1.871-17.815,10.617-17.815,10.617s-8.909-36.21-45.623-33.997
			c-36.713,2.212-42.446,29.757-42.446,29.757s-22.562-7.944-31.222,17.718c0,0-39.924-8.955-52.16,32.315
			c0,0-12.891-6.212-24.339-5.083C43.29,206.419,34.755,220.497,34.755,220.497z"/>
	</g>
</g>
</svg>
