
<svg version="1.1" id="Layer_1" xmlns:x="&ns_extend;" xmlns:i="&ns_ai;" xmlns:graph="&ns_graphs;"
	 xmlns="http://www.w3.org/2000/svg" xmlns:xlink="http://www.w3.org/1999/xlink" xmlns:a="http://ns.adobe.com/AdobeSVGViewerExtensions/3.0/"
	 x="0px" y="0px" width="400px" height="400px" viewBox="0 0 400 400" enable-background="new 0 0 400 400" xml:space="preserve">
<switch>
	<g i:extraneous="self">
		<polygon fill="#FFAE0C" points="162.131,175.275 139.443,130.822 157.674,94.645 191.629,116.74 194.383,166.572 		"/>
		<polygon fill="#FFAE0C" points="209.721,173.838 202.662,115.017 235.508,81.515 262.867,119.631 246.93,176.688 		"/>
		<polygon fill="#FFAE0C" points="270.455,168.679 274.627,128.545 302.416,111.75 315.418,141.503 295.664,176.688 		"/>
		<polygon fill="#FFAE0C" points="318.852,173.652 321.658,146.402 343.098,136.546 353.541,157.705 338.557,180.639 		"/>
		<polygon fill="#FFAE0C" points="113.854,184.994 94.135,157.708 102.255,131.771 126.992,143.028 134.16,175.922 		"/>
		<polygon fill="#FFAE0C" points="83.369,198.516 73.443,175.673 78.077,158.567 90.865,170.837 94.135,195.524 		"/>
		<polygon fill="#FFAE0C" points="61.15,190.893 58.587,175.741 63.896,166.182 69.739,175.425 68.042,190.696 		"/>
		<polygon fill="#FFAE0C" points="374.656,173.301 385.346,157.531 379.398,175.63 		"/>
		<polygon fill="#FFAE0C" points="382.316,178.116 391.004,165.3 386.168,180.009 		"/>
		<polygon fill="#FFAE0C" points="48.346,187.636 46.46,176.482 50.368,169.446 54.668,176.25 53.419,187.491 		"/>
		<path fill="#FFAE0C" d="M93.266,172.966c-1.401,0.497,34.483-32.414,73.793-36.552c28.966-3.448,52.66-3.325,66.035-2
			c13.373,1.325,49.137,4.069,81.551,13.035s75.174,33.104,75.174,33.104s-44.031-1.479-51.035,0
			c-27.586,6.896-40.691,8.964-53.793,13.447c-13.496,7.419-20.455,14.162-30.346,21.725
			c-18.619,13.104-126.149,21.941-144.827,16.552c-15.721-4.537-18.255-18.699-26.207-24.138
			c-6.782-4.639-35.413-10.766-38.931-11.035s-30.563,5.136-32.103,4.828s-6.045-0.328-6.897-1.38s-0.959-6.052,0-6.552
			s28.18-15.625,32.414-16.896c4.234-1.27,32.322,1.196,35.862,1.38S94.667,172.469,93.266,172.966z M36.912,182.625
			c-1.381,0-2.5,2.119-2.5,3.5s2.119,2.5,3.5,2.5s2.5-1.119,2.5-2.5S38.292,182.625,36.912,182.625z"/>
		<path fill="#D4FFFD" d="M34.755,239.497c0,0-19.504,4.885-17.582,22.163c1.922,17.277,12.973,17.989,23.438,20.606
			c22.939,5.946,89.423,4.165,92.984,6.226s25.605,30.373,74.93,29.3c37.975-1.354,60.565-22.676,64.276-24.065
			c3.711-1.389,70.764,4.197,82.808,1.624c12.045-2.573,38.503-12.492,33.88-53.689c-4.623-41.198-54.143-30.601-54.143-30.601
			c-13.964-46.464-54.351-39.967-67.003-38.096c-12.651,1.871-17.815,10.617-17.815,10.617s-8.909-36.21-45.623-33.997
			c-36.713,2.212-42.446,29.757-42.446,29.757s-22.562-7.944-31.222,17.718c0,0-39.924-8.955-52.16,32.315
			c0,0-12.891-6.212-24.339-5.083C43.29,225.419,34.755,239.497,34.755,239.497z"/>

	</g>
</switch>
</svg>
